<svg width="48" height="48" viewBox="0 0 48 48" fill="none" xmlns="http://www.w3.org/2000/svg">
<path d="M23.9999 42.6667C34.3092 42.6667 42.6666 34.3093 42.6666 24C42.6666 13.6907 34.3092 5.33334 23.9999 5.33334C13.6906 5.33334 5.33325 13.6907 5.33325 24C5.33325 28.2259 6.73751 32.1238 9.10484 35.2526L7.55718 41.7548C7.33536 42.6867 8.20557 43.5093 9.12357 43.2355L16.0475 41.1698C16.1588 41.1366 16.2607 41.0903 16.3526 41.0334C18.6865 42.0828 21.275 42.6667 23.9999 42.6667Z" fill="#0071DC"/>
<path fill-rule="evenodd" clip-rule="evenodd" d="M23.9463 20.079C24.5087 20.079 24.9633 19.7839 25.0216 19.4053L25.5728 13.1303C25.5728 12.5102 24.8565 12 23.9454 12C23.0406 12 22.3223 12.5102 22.3223 13.1303L22.8706 19.4093C22.9323 19.7863 23.3907 20.079 23.9463 20.079ZM20.5497 25.9358C20.8314 26.4283 20.8066 26.9743 20.5118 27.2149L15.4113 30.8346C14.879 31.1444 14.0849 30.7722 13.6289 29.9744C13.1767 29.1829 13.2544 28.2981 13.7853 27.9887L19.4389 25.329C19.7935 25.1954 20.2719 25.4493 20.5497 25.9358ZM23.8951 27.9195C24.4575 27.9195 24.9111 28.2146 24.9709 28.5932L25.5221 34.8682C25.5221 35.4889 24.8048 36 23.8932 36C22.9893 36 22.271 35.4889 22.271 34.8682L22.8184 28.5893C22.8815 28.2132 23.3395 27.9195 23.8951 27.9195ZM28.3819 25.377C28.0274 25.241 27.5476 25.4904 27.2673 25.9824C26.9895 26.4695 27.0104 27.0174 27.3028 27.26L32.4067 30.8797C32.939 31.1895 33.7345 30.8153 34.1862 30.0243C34.6427 29.225 34.5645 28.3436 34.0327 28.0333L28.3819 25.377ZM28.4075 22.6652C28.053 22.8027 27.5736 22.5537 27.2919 22.0598C27.0151 21.5737 27.0374 21.0262 27.3279 20.7832L32.4327 17.164C32.9645 16.8542 33.7596 17.2278 34.2117 18.0193C34.6683 18.8172 34.5896 19.6995 34.0587 20.0103L28.4075 22.6652ZM20.5757 22.0179C20.8569 21.5259 20.8316 20.9809 20.5373 20.7388L15.4358 17.1191C14.9055 16.8093 14.1109 17.1815 13.6544 17.9803C13.2022 18.7718 13.28 19.6551 13.8108 19.965L19.4645 22.6247C19.8175 22.7593 20.2974 22.504 20.5757 22.0179Z" fill="#FFC120"/>
</svg>
